# xmcd
#
# Track frame offsets: 
#        150
#        10529
#        22130
#        34301
#        45961
#        59135
#        67104
#        79939
#        93409
#        105742
#        116171
#        130030
#        142005
#        152057
#        164921
#        176169
#        184923
#        198561
#        210467
#        221623
#        231830
#        244431
#        257943
#        269602
#
# Disc length: 3699 seconds
#
# Revision: 0
# Processed by: cddbd v1.5.2PL0 Copyright (c) Steve Scherf et al.
# Submitted via: ExactAudioCopy v0.99pb4
#
DISCID=780e7118
DTITLE=Various Artist - Toast Of The Coast
DYEAR=2009
DGENRE=R&B
TTITLE0=Porkey Harris and the Sophisti-Cats - Pot Holder
TTITLE1=Vernon Anders with Monroe Tucker - Lovin' John
TTITLE2=Memphis Slim - Treat Me Like I Treat You
TTITLE3=Big Boy Groves and Little Margie - Another Ticket
TTITLE4=Linda Hayes - Yes I Know
TTITLE5=Pee Wee Crayton - Boogie Bop
TTITLE6=Jimmy Witherspoon and unknown female - Big Family Blues
TTITLE7=Geneva Vallier - You Said You Had A Woman
TTITLE8=Sonny Harper - Ride Lone Stranger, Ride
TTITLE9=Al Calloway - Uncle John
TTITLE10=Little Margie - Years And Tears Ago
TTITLE11=Vernon Anders - Hound Dog And Alley Cat
TTITLE12=Vernon Anders - I'm A Humdinger
TTITLE13=Lois Butler with the Joe Houston Band - Pretty Daddy
TTITLE14=Unknown male - Let's Ball All Night Long
TTITLE15=Peppermint Harris - Cadillac Funeral
TTITLE16=Juanita Moore and the Eugene Jackson Trio - Call Me A Hound Dog
TTITLE17=Tap Anthony and his All Star Band - Watch Your Best Friend
TTITLE18=Little Margie - Yes It's You
TTITLE19=Big Boy Groves - Uh-Huh
TTITLE20=Ernie Freeman Combo with Sherry Washington - Jivin' Around
TTITLE21=Peppermint Harris - Treat Me Like I Treat You
TTITLE22=Little Eve - A Little Bit Of You
TTITLE23=Porkey Harris and the Sophisti-Cats - Hollywood Hop
EXTD=
EXTT0=
EXTT1=
EXTT2=
EXTT3=
EXTT4=
EXTT5=
EXTT6=
EXTT7=
EXTT8=
EXTT9=
EXTT10=
EXTT11=
EXTT12=
EXTT13=
EXTT14=
EXTT15=
EXTT16=
EXTT17=
EXTT18=
EXTT19=
EXTT20=
EXTT21=
EXTT22=
EXTT23=
PLAYORDER=
